<svg version="1.1" id="Layer_1" x="0px" y="0px" viewBox="0 221.877 789.562 176.239" style="enable-background:new 0 0 792 612;" xmlns="http://www.w3.org/2000/svg">
  <style type="text/css">
	.st0{fill:#221F20;}
	.st1{fill:#D75F8F;}
</style>
  <g>
    <path class="st0" d="M34.78,288.5l8.79,19.74H25.93L34.78,288.5z M32.79,283.35l-17.64,38.99h4.48l4.59-10.23h21.07l4.53,10.23h4.7 l-17.64-38.99H32.79z"></path>
    <g>
      <path class="st0" d="M72.39,295.75c0.29,0.74,0.83,1.41,1.6,2.02c0.78,0.61,1.85,1.16,3.21,1.66c1.36,0.5,3.11,0.97,5.25,1.41 c4.31,0.96,7.49,2.29,9.54,3.99c2.05,1.7,3.07,4.04,3.07,7.04c0,1.66-0.33,3.18-0.98,4.54c-0.66,1.37-1.56,2.53-2.71,3.49 c-1.15,0.96-2.54,1.7-4.16,2.22c-1.62,0.52-3.39,0.77-5.31,0.77c-3.1,0-5.93-0.5-8.49-1.5c-2.56-1-5-2.54-7.33-4.64l2.71-3.21 c2.03,1.84,4.07,3.22,6.14,4.12c2.06,0.9,4.44,1.35,7.13,1.35c2.62,0,4.71-0.61,6.28-1.83c1.57-1.22,2.35-2.83,2.35-4.82 c0-0.92-0.15-1.74-0.44-2.46c-0.3-0.72-0.81-1.38-1.55-1.97c-0.74-0.59-1.76-1.13-3.08-1.61c-1.31-0.48-2.99-0.94-5.02-1.39 c-2.22-0.48-4.15-1.03-5.79-1.66c-1.65-0.63-3-1.38-4.08-2.27c-1.07-0.89-1.87-1.92-2.38-3.1c-0.52-1.18-0.78-2.59-0.78-4.21 c0-1.55,0.31-2.97,0.94-4.26c0.63-1.29,1.51-2.41,2.65-3.35c1.14-0.94,2.49-1.68,4.04-2.21c1.55-0.54,3.24-0.81,5.09-0.81 c2.84,0,5.32,0.39,7.44,1.18c2.12,0.78,4.18,1.96,6.17,3.53l-2.54,3.38c-1.81-1.48-3.62-2.55-5.45-3.21 c-1.83-0.66-3.73-0.99-5.73-0.99c-1.25,0-2.39,0.16-3.4,0.5c-1.01,0.33-1.88,0.77-2.6,1.33c-0.72,0.55-1.27,1.22-1.66,1.99 c-0.39,0.78-0.58,1.61-0.58,2.49C71.95,294.19,72.09,295.02,72.39,295.75"></path>
    </g>
    <polygon class="st0" points="115.53,304.92 115.53,322.34 111.16,322.34 111.16,283.63 115.53,283.63 115.53,300.83 137.87,300.83 
		137.87,283.63 142.24,283.63 142.24,322.34 137.87,322.34 137.87,304.92"></polygon>
    <polygon class="st0" points="160.38,283.63 164.75,283.63 164.75,318.31 186.54,318.31 186.54,322.34 160.38,322.34"></polygon>
    <polygon class="st0" points="229.78,287.61 206.17,287.61 206.17,300.83 227.3,300.83 227.3,304.81 206.17,304.81 206.17,318.36 
		230.06,318.36 230.06,322.34 201.8,322.34 201.8,283.63 229.78,283.63"></polygon>
    <polygon class="st0" points="262.53,322.34 258.16,322.34 258.16,307.02 242.06,283.63 247.37,283.63 260.4,302.99 273.53,283.63 
		278.62,283.63 262.53,306.97"></polygon>
  </g>
  <g>
    <g>
      <path class="st0" d="M466.72,295.75c0.29,0.74,0.83,1.41,1.6,2.02c0.78,0.61,1.84,1.16,3.21,1.66c1.36,0.5,3.12,0.97,5.26,1.41 c4.31,0.96,7.49,2.29,9.54,3.99c2.05,1.7,3.07,4.04,3.07,7.04c0,1.66-0.33,3.18-0.98,4.54c-0.66,1.37-1.56,2.53-2.71,3.49 c-1.15,0.96-2.54,1.7-4.16,2.22c-1.62,0.52-3.39,0.77-5.31,0.77c-3.1,0-5.93-0.5-8.49-1.5c-2.56-1-5-2.54-7.33-4.64l2.71-3.21 c2.03,1.84,4.07,3.22,6.14,4.12c2.06,0.9,4.44,1.35,7.14,1.35c2.62,0,4.71-0.61,6.28-1.83c1.57-1.22,2.35-2.83,2.35-4.82 c0-0.92-0.15-1.74-0.44-2.46c-0.3-0.72-0.81-1.38-1.55-1.97c-0.74-0.59-1.77-1.13-3.08-1.61c-1.31-0.48-2.98-0.94-5.02-1.39 c-2.22-0.48-4.15-1.03-5.79-1.66c-1.65-0.63-3.01-1.38-4.08-2.27c-1.07-0.89-1.87-1.92-2.38-3.1c-0.52-1.18-0.78-2.59-0.78-4.21 c0-1.55,0.31-2.97,0.94-4.26c0.63-1.29,1.51-2.41,2.65-3.35c1.14-0.94,2.49-1.68,4.04-2.21c1.55-0.54,3.24-0.81,5.09-0.81 c2.84,0,5.32,0.39,7.44,1.18c2.12,0.78,4.17,1.96,6.17,3.53l-2.54,3.38c-1.81-1.48-3.62-2.55-5.45-3.21 c-1.83-0.66-3.73-0.99-5.73-0.99c-1.25,0-2.39,0.16-3.4,0.5c-1.01,0.33-1.88,0.77-2.6,1.33c-0.72,0.55-1.27,1.22-1.66,1.99 c-0.39,0.78-0.58,1.61-0.58,2.49C466.28,294.19,466.43,295.02,466.72,295.75"></path>
    </g>
    <polygon class="st0" points="519.26,322.34 514.89,322.34 514.89,287.67 501.9,287.67 501.9,283.63 532.26,283.63 532.26,287.67 
		519.26,287.67"></polygon>
    <polygon class="st0" points="575.67,287.61 552.06,287.61 552.06,300.83 573.18,300.83 573.18,304.81 552.06,304.81 552.06,318.36 
		575.95,318.36 575.95,322.34 547.69,322.34 547.69,283.63 575.67,283.63"></polygon>
    <polygon class="st0" points="613.17,283.52 616.77,283.52 627.39,315.87 638.45,283.63 643.04,283.63 629.21,322.62 625.5,322.62 
		614.89,291.21 604.21,322.62 600.56,322.62 586.74,283.63 591.49,283.63 602.55,315.87"></polygon>
    <path class="st0" d="M669.47,288.5l-8.85,19.74h17.64L669.47,288.5z M689.21,322.34h-4.7l-4.53-10.23h-21.07l-4.59,10.23h-4.48 l17.64-38.99h4.09L689.21,322.34z"></path>
    <g>
      <path class="st0" d="M726.59,289.69c-1.74-1.35-4.18-2.03-7.32-2.03H707.3v15.76h11.92c1.44,0,2.77-0.18,3.99-0.55 c1.22-0.37,2.27-0.9,3.16-1.58c0.89-0.69,1.58-1.53,2.08-2.53c0.5-1,0.75-2.13,0.75-3.39 C729.2,292.94,728.33,291.04,726.59,289.69 M729.59,322.34l-11.23-15.04H707.3v15.04h-4.37v-38.71h16.65 c2.14,0,4.06,0.28,5.78,0.83c1.71,0.55,3.18,1.34,4.4,2.35c1.22,1.02,2.16,2.23,2.82,3.65c0.66,1.42,1,3,1,4.73 c0,1.62-0.26,3.07-0.78,4.34c-0.52,1.27-1.24,2.38-2.18,3.32c-0.94,0.94-2.05,1.72-3.34,2.35c-1.29,0.63-2.69,1.07-4.2,1.33 l11.89,15.81H729.59z"></path>
    </g>
    <polygon class="st0" points="746.95,283.63 746.95,287.67 759.95,287.67 759.95,322.34 764.32,322.34 764.32,287.67 777.32,287.67 
		777.32,283.63"></polygon>
  </g>
  <g>
    <g>
      <path class="st1" d="M302.48,319.95h-10.74c-0.79-4.45-1.21-9-1.21-13.66c0-32.56,19.95-60.45,48.32-72.11L302.48,319.95z"></path>
    </g>
    <polygon class="st1" points="321.27,282.13 336.66,245.89 352.32,282.13"></polygon>
    <g>
      <path class="st1" d="M421.73,358.01c0,1.79-0.34,3.87-1.05,6.21c0,0.03-0.03,0.08-0.03,0.11c-6.68,6.03-14.45,10.9-22.95,14.32 c-1.21,0-2.5-0.03-3.89-0.05c-1.58-0.05-3.24-0.32-4.97-0.82s-3.58-1.26-5.5-2.34c-1.92-1.08-3.89-2.63-5.98-4.71 c-1.87-1.76-3.45-3.71-4.76-5.82c-1.29-2.1-2.34-4.16-3.21-6.16c-0.84-2.03-1.5-3.89-1.95-5.63c-0.42-1.74-0.76-3.16-0.92-4.24 h-2.03v29.77h2.16c0.45-1.24,0.95-2.08,1.47-2.47c0.53-0.4,1.42-0.61,2.68-0.61c0.9,0,2.26,0.26,4.08,0.82 c1.84,0.53,3.95,1.08,6.29,1.66c2.39,0.58,4.92,1.16,7.66,1.68c1.39,0.29,2.84,0.5,4.26,0.6c-7.71,2.58-15.98,3.97-24.56,3.97 c-37.53,0-68.88-26.5-76.32-61.82h24.19v-2.53h-11.16l14.95-35.27h33.11l15.26,35.27h-12.29v2.53h13.92 c1.39,2.34,2.87,4.66,4.89,6.37c2.58,2.18,5.53,3.97,8.84,5.37c3.32,1.37,6.71,2.58,10.18,3.61c3.5,1.03,6.89,2.03,10.18,3.03 c3.32,0.97,6.26,2.18,8.84,3.61c2.61,1.42,4.68,3.21,6.26,5.37C420.96,351.98,421.73,354.69,421.73,358.01"></path>
      <path class="st1" d="M434.04,348.59c0.03-0.16,0.03-0.34,0.03-0.5c0-4.47-0.82-8.24-2.47-11.26c-1.66-3.03-3.82-5.63-6.5-7.76 c-2.68-2.16-5.74-3.92-9.18-5.32c-3.45-1.37-6.97-2.66-10.61-3.82c-3.61-1.16-7.13-2.29-10.58-3.34 c-1.66-0.53-2.97-1.21-4.42-1.84c-2.74-1.55-5-3.34-6.71-5.47c-1.76-2.18-2.66-4.95-2.66-8.32c0-2.18,0.82-4.74,1.58-6.42 c0.76-1.71,2.68-4.11,4.6-5.74c2-1.74,4.45-3.11,7.37-4.16c2.4-0.87,5.63-1.18,8.08-1.08c2.47,0.1,5.11,0.66,6.97,1.66 c2.87,1.5,5.24,3.5,7.11,5.95c1.87,2.47,3.42,5.21,4.63,8.26c1.18,3.03,2.34,6.11,3.42,9.24h1.74v-25.48h-2.16 c-0.45,1.08-0.87,1.82-1.26,2.21c-0.39,0.42-1.24,0.61-2.47,0.61c-1.08,0-2.26-0.26-3.55-0.79c-1.32-0.55-2.79-1.11-4.5-1.68 c-1.71-0.58-3.66-1.13-5.89-1.68c-2.24-0.53-4.82-0.79-7.79-0.79c-4.63,0-8.95,0.79-12.92,2.34c-3.68,1.45-6.76,3.42-9.5,5.71 l-25.48-58.77c5.66-1.34,11.58-2.03,17.63-2.03c43.06,0,77.98,34.92,77.98,77.98C446.52,321.87,441.94,336.4,434.04,348.59"></path>
    </g>
    <polygon class="st1" points="352.32,282.13 321.27,282.13 336.67,245.89"></polygon>
  </g>
</svg>